<?xml version="1.0" encoding="UTF-8" standalone="no"?>
<svg xmlns:dc="http://purl.org/dc/elements/1.1/" xmlns:cc="http://creativecommons.org/ns#" xmlns:rdf="http://www.w3.org/1999/02/22-rdf-syntax-ns#" xmlns:svg="http://www.w3.org/2000/svg" xmlns="http://www.w3.org/2000/svg" xmlns:sodipodi="http://sodipodi.sourceforge.net/DTD/sodipodi-0.dtd" xmlns:inkscape="http://www.inkscape.org/namespaces/inkscape" id="svg7052" inkscape:version="0.92.3 (2405546, 2018-03-11)" version="1.1"
width ="602px" height="373px" viewBox="0 0 602 373">
<polygon points="0,0 602,0 602,373 0,373" stroke="none" fill="rgb(255,255,255)" />
<polygon points="301,44.76 0,0 602,0 602,373 454.438,310.5225 301,44.76 " stroke="none"  fill="rgb(255,255,255)"/>
<polygon points="301,44.76 0,0 0,373 147.562,310.5225 301,44.76 " stroke="none"  fill="rgb(255,255,255)"/>
<polygon points="147.562,310.5225 0,373 602,373 454.438,310.5225 147.562,310.5225 " stroke="none"  fill="rgb(255,255,255)"/>
<line stroke-dasharray="1,1" stroke="rgb(211,211,211)" stroke-width="1" x1="423.7504" y1="310.5225" x2="439.0942" y2="283.9463"/>
<line stroke-dasharray="1,1" stroke="rgb(211,211,211)" stroke-width="1" x1="439.0942" y1="283.9463" x2="162.9058" y2="283.9463"/>
<line stroke-dasharray="1,1" stroke="rgb(211,211,211)" stroke-width="1" x1="162.9058" y1="283.9463" x2="178.2496" y2="310.5225"/>
<line stroke-dasharray="1,1" stroke="rgb(211,211,211)" stroke-width="1" x1="393.0628" y1="310.5225" x2="423.7505" y2="257.37"/>
<line stroke-dasharray="1,1" stroke="rgb(211,211,211)" stroke-width="1" x1="423.7505" y1="257.37" x2="178.2496" y2="257.37"/>
<line stroke-dasharray="1,1" stroke="rgb(211,211,211)" stroke-width="1" x1="178.2496" y1="257.37" x2="208.9372" y2="310.5225"/>
<line stroke-dasharray="1,1" stroke="rgb(211,211,211)" stroke-width="1" x1="362.3752" y1="310.5225" x2="408.4066" y2="230.7937"/>
<line stroke-dasharray="1,1" stroke="rgb(211,211,211)" stroke-width="1" x1="408.4066" y1="230.7937" x2="193.5934" y2="230.7937"/>
<line stroke-dasharray="1,1" stroke="rgb(211,211,211)" stroke-width="1" x1="193.5934" y1="230.7937" x2="239.6248" y2="310.5225"/>
<line stroke-dasharray="1,1" stroke="rgb(211,211,211)" stroke-width="1" x1="331.6876" y1="310.5225" x2="393.0628" y2="204.2175"/>
<line stroke-dasharray="1,1" stroke="rgb(211,211,211)" stroke-width="1" x1="393.0628" y1="204.2175" x2="208.9372" y2="204.2175"/>
<line stroke-dasharray="1,1" stroke="rgb(211,211,211)" stroke-width="1" x1="208.9372" y1="204.2175" x2="270.3124" y2="310.5225"/>
<line stroke-dasharray="1,1" stroke="rgb(211,211,211)" stroke-width="1" x1="301" y1="310.5225" x2="377.719" y2="177.6413"/>
<line stroke-dasharray="1,1" stroke="rgb(211,211,211)" stroke-width="1" x1="377.719" y1="177.6413" x2="224.281" y2="177.6413"/>
<line stroke-dasharray="1,1" stroke="rgb(211,211,211)" stroke-width="1" x1="224.281" y1="177.6413" x2="301" y2="310.5225"/>
<line stroke-dasharray="1,1" stroke="rgb(211,211,211)" stroke-width="1" x1="270.3124" y1="310.5225" x2="362.3752" y2="151.065"/>
<line stroke-dasharray="1,1" stroke="rgb(211,211,211)" stroke-width="1" x1="362.3752" y1="151.065" x2="239.6248" y2="151.065"/>
<line stroke-dasharray="1,1" stroke="rgb(211,211,211)" stroke-width="1" x1="239.6248" y1="151.065" x2="331.6876" y2="310.5225"/>
<line stroke-dasharray="1,1" stroke="rgb(211,211,211)" stroke-width="1" x1="239.6248" y1="310.5225" x2="347.0314" y2="124.4888"/>
<line stroke-dasharray="1,1" stroke="rgb(211,211,211)" stroke-width="1" x1="347.0314" y1="124.4888" x2="254.9686" y2="124.4888"/>
<line stroke-dasharray="1,1" stroke="rgb(211,211,211)" stroke-width="1" x1="254.9686" y1="124.4888" x2="362.3752" y2="310.5225"/>
<line stroke-dasharray="1,1" stroke="rgb(211,211,211)" stroke-width="1" x1="208.9372" y1="310.5225" x2="331.6876" y2="97.9125"/>
<line stroke-dasharray="1,1" stroke="rgb(211,211,211)" stroke-width="1" x1="331.6876" y1="97.9125" x2="270.3124" y2="97.9125"/>
<line stroke-dasharray="1,1" stroke="rgb(211,211,211)" stroke-width="1" x1="270.3124" y1="97.9125" x2="393.0628" y2="310.5225"/>
<line stroke-dasharray="1,1" stroke="rgb(211,211,211)" stroke-width="1" x1="178.2496" y1="310.5225" x2="316.3438" y2="71.33626"/>
<line stroke-dasharray="1,1" stroke="rgb(211,211,211)" stroke-width="1" x1="316.3438" y1="71.33626" x2="285.6562" y2="71.33626"/>
<line stroke-dasharray="1,1" stroke="rgb(211,211,211)" stroke-width="1" x1="285.6562" y1="71.33626" x2="423.7504" y2="310.5225"/>
<line stroke="rgb(0,0,0)" stroke-width="2" x1="301" y1="44.76" x2="454.438" y2="310.5225"/>
<line stroke="rgb(0,0,0)" stroke-width="2" x1="454.438" y1="310.5225" x2="147.562" y2="310.5225"/>
<line stroke="rgb(0,0,0)" stroke-width="2" x1="147.562" y1="310.5225" x2="301" y2="44.76"/>
<text x="301" y="30.65193" fill="rgb(0,0,0)" font-size="10pt" font-family="Times New Roman" text-anchor="middle" transform="rotate(0,301,30.65193)">A</text>
<text x="464.438" y="327.8467" fill="rgb(0,0,0)" font-size="10pt" font-family="Times New Roman" text-anchor="start" transform="rotate(0,464.438,327.8467)">B</text>
<text x="132.562" y="327.8467" fill="rgb(0,0,0)" font-size="10pt" font-family="Times New Roman" text-anchor="end" transform="rotate(0,132.562,327.8467)">C</text>
<line stroke="rgb(0,0,0)" stroke-width="2" x1="285.6562" y1="71.33626" x2="279.6562" y2="60.94395"/>
<line stroke="rgb(0,0,0)" stroke-width="2" x1="178.2496" y1="310.5225" x2="172.2496" y2="320.9148"/>
<line stroke="rgb(0,0,0)" stroke-width="2" x1="439.0942" y1="283.9463" x2="451.0942" y2="283.9463"/>
<text x="277.6562" y="65.05202" fill="rgb(0,0,0)" font-size="10pt" font-family="Times New Roman" text-anchor="end" transform="rotate(0,277.6562,65.05202)">0.1</text>
<text x="172.2496" y="333.239" fill="rgb(0,0,0)" font-size="10pt" font-family="Times New Roman" text-anchor="middle" transform="rotate(0,172.2496,333.239)">0.1</text>
<text x="454.0942" y="288.0543" fill="rgb(0,0,0)" font-size="10pt" font-family="Times New Roman" text-anchor="start" transform="rotate(0,454.0942,288.0543)">0.1</text>
<line stroke="rgb(0,0,0)" stroke-width="2" x1="270.3124" y1="97.9125" x2="264.3124" y2="87.5202"/>
<line stroke="rgb(0,0,0)" stroke-width="2" x1="208.9372" y1="310.5225" x2="202.9372" y2="320.9148"/>
<line stroke="rgb(0,0,0)" stroke-width="2" x1="423.7505" y1="257.37" x2="435.7505" y2="257.37"/>
<text x="262.3124" y="91.62827" fill="rgb(0,0,0)" font-size="10pt" font-family="Times New Roman" text-anchor="end" transform="rotate(0,262.3124,91.62827)">0.2</text>
<text x="202.9372" y="333.239" fill="rgb(0,0,0)" font-size="10pt" font-family="Times New Roman" text-anchor="middle" transform="rotate(0,202.9372,333.239)">0.2</text>
<text x="438.7505" y="261.4781" fill="rgb(0,0,0)" font-size="10pt" font-family="Times New Roman" text-anchor="start" transform="rotate(0,438.7505,261.4781)">0.2</text>
<line stroke="rgb(0,0,0)" stroke-width="2" x1="254.9686" y1="124.4888" x2="248.9686" y2="114.0965"/>
<line stroke="rgb(0,0,0)" stroke-width="2" x1="239.6248" y1="310.5225" x2="233.6248" y2="320.9148"/>
<line stroke="rgb(0,0,0)" stroke-width="2" x1="408.4066" y1="230.7937" x2="420.4066" y2="230.7937"/>
<text x="246.9686" y="118.2045" fill="rgb(0,0,0)" font-size="10pt" font-family="Times New Roman" text-anchor="end" transform="rotate(0,246.9686,118.2045)">0.3</text>
<text x="233.6248" y="333.239" fill="rgb(0,0,0)" font-size="10pt" font-family="Times New Roman" text-anchor="middle" transform="rotate(0,233.6248,333.239)">0.3</text>
<text x="423.4066" y="234.9018" fill="rgb(0,0,0)" font-size="10pt" font-family="Times New Roman" text-anchor="start" transform="rotate(0,423.4066,234.9018)">0.3</text>
<line stroke="rgb(0,0,0)" stroke-width="2" x1="239.6248" y1="151.065" x2="233.6248" y2="140.6727"/>
<line stroke="rgb(0,0,0)" stroke-width="2" x1="270.3124" y1="310.5225" x2="264.3124" y2="320.9148"/>
<line stroke="rgb(0,0,0)" stroke-width="2" x1="393.0628" y1="204.2175" x2="405.0628" y2="204.2175"/>
<text x="231.6248" y="144.7808" fill="rgb(0,0,0)" font-size="10pt" font-family="Times New Roman" text-anchor="end" transform="rotate(0,231.6248,144.7808)">0.4</text>
<text x="264.3124" y="333.239" fill="rgb(0,0,0)" font-size="10pt" font-family="Times New Roman" text-anchor="middle" transform="rotate(0,264.3124,333.239)">0.4</text>
<text x="408.0628" y="208.3256" fill="rgb(0,0,0)" font-size="10pt" font-family="Times New Roman" text-anchor="start" transform="rotate(0,408.0628,208.3256)">0.4</text>
<line stroke="rgb(0,0,0)" stroke-width="2" x1="224.281" y1="177.6413" x2="218.281" y2="167.2489"/>
<line stroke="rgb(0,0,0)" stroke-width="2" x1="301" y1="310.5225" x2="295" y2="320.9148"/>
<line stroke="rgb(0,0,0)" stroke-width="2" x1="377.719" y1="177.6413" x2="389.719" y2="177.6413"/>
<text x="216.281" y="171.357" fill="rgb(0,0,0)" font-size="10pt" font-family="Times New Roman" text-anchor="end" transform="rotate(0,216.281,171.357)">0.5</text>
<text x="295" y="333.239" fill="rgb(0,0,0)" font-size="10pt" font-family="Times New Roman" text-anchor="middle" transform="rotate(0,295,333.239)">0.5</text>
<text x="392.719" y="181.7493" fill="rgb(0,0,0)" font-size="10pt" font-family="Times New Roman" text-anchor="start" transform="rotate(0,392.719,181.7493)">0.5</text>
<line stroke="rgb(0,0,0)" stroke-width="2" x1="208.9372" y1="204.2175" x2="202.9372" y2="193.8252"/>
<line stroke="rgb(0,0,0)" stroke-width="2" x1="331.6876" y1="310.5225" x2="325.6876" y2="320.9148"/>
<line stroke="rgb(0,0,0)" stroke-width="2" x1="362.3752" y1="151.065" x2="374.3752" y2="151.065"/>
<text x="200.9372" y="197.9333" fill="rgb(0,0,0)" font-size="10pt" font-family="Times New Roman" text-anchor="end" transform="rotate(0,200.9372,197.9333)">0.6</text>
<text x="325.6876" y="333.239" fill="rgb(0,0,0)" font-size="10pt" font-family="Times New Roman" text-anchor="middle" transform="rotate(0,325.6876,333.239)">0.6</text>
<text x="377.3752" y="155.1731" fill="rgb(0,0,0)" font-size="10pt" font-family="Times New Roman" text-anchor="start" transform="rotate(0,377.3752,155.1731)">0.6</text>
<line stroke="rgb(0,0,0)" stroke-width="2" x1="193.5934" y1="230.7937" x2="187.5934" y2="220.4014"/>
<line stroke="rgb(0,0,0)" stroke-width="2" x1="362.3752" y1="310.5225" x2="356.3752" y2="320.9148"/>
<line stroke="rgb(0,0,0)" stroke-width="2" x1="347.0314" y1="124.4888" x2="359.0314" y2="124.4888"/>
<text x="185.5934" y="224.5095" fill="rgb(0,0,0)" font-size="10pt" font-family="Times New Roman" text-anchor="end" transform="rotate(0,185.5934,224.5095)">0.7</text>
<text x="356.3752" y="333.239" fill="rgb(0,0,0)" font-size="10pt" font-family="Times New Roman" text-anchor="middle" transform="rotate(0,356.3752,333.239)">0.7</text>
<text x="362.0314" y="128.5968" fill="rgb(0,0,0)" font-size="10pt" font-family="Times New Roman" text-anchor="start" transform="rotate(0,362.0314,128.5968)">0.7</text>
<line stroke="rgb(0,0,0)" stroke-width="2" x1="178.2496" y1="257.37" x2="172.2496" y2="246.9777"/>
<line stroke="rgb(0,0,0)" stroke-width="2" x1="393.0628" y1="310.5225" x2="387.0628" y2="320.9148"/>
<line stroke="rgb(0,0,0)" stroke-width="2" x1="331.6876" y1="97.9125" x2="343.6876" y2="97.9125"/>
<text x="170.2496" y="251.0858" fill="rgb(0,0,0)" font-size="10pt" font-family="Times New Roman" text-anchor="end" transform="rotate(0,170.2496,251.0858)">0.8</text>
<text x="387.0628" y="333.239" fill="rgb(0,0,0)" font-size="10pt" font-family="Times New Roman" text-anchor="middle" transform="rotate(0,387.0628,333.239)">0.8</text>
<text x="346.6876" y="102.0206" fill="rgb(0,0,0)" font-size="10pt" font-family="Times New Roman" text-anchor="start" transform="rotate(0,346.6876,102.0206)">0.8</text>
<line stroke="rgb(0,0,0)" stroke-width="2" x1="162.9058" y1="283.9462" x2="156.9058" y2="273.5539"/>
<line stroke="rgb(0,0,0)" stroke-width="2" x1="423.7504" y1="310.5225" x2="417.7504" y2="320.9148"/>
<line stroke="rgb(0,0,0)" stroke-width="2" x1="316.3438" y1="71.33626" x2="328.3438" y2="71.33626"/>
<text x="154.9058" y="277.662" fill="rgb(0,0,0)" font-size="10pt" font-family="Times New Roman" text-anchor="end" transform="rotate(0,154.9058,277.662)">0.9</text>
<text x="417.7504" y="333.239" fill="rgb(0,0,0)" font-size="10pt" font-family="Times New Roman" text-anchor="middle" transform="rotate(0,417.7504,333.239)">0.9</text>
<text x="331.3438" y="75.44433" fill="rgb(0,0,0)" font-size="10pt" font-family="Times New Roman" text-anchor="start" transform="rotate(0,331.3438,75.44433)">0.9</text>
<circle cx="297.8356" cy="109.0104" r="6" stroke="none" stroke-width="0" fill="rgb(255,0,255)"/>
<circle cx="240.1689" cy="219.5382" r="6" stroke="none" stroke-width="0" fill="rgb(255,0,255)"/>
<circle cx="325.4675" cy="259.1841" r="6" stroke="none" stroke-width="0" fill="rgb(255,0,255)"/>
<polygon points="293.03,151.2673 299.0922,161.7673 286.9678,161.7673" stroke="none" stroke-width="0" fill="rgb(34,139,34)"/>
<polygon points="244.9744,266.6008 251.0366,277.1008 238.9122,277.1008" stroke="none" stroke-width="0" fill="rgb(34,139,34)"/>
<polygon points="336.2801,195.7188 342.3422,206.2188 330.2179,206.2188" stroke="none" stroke-width="0" fill="rgb(34,139,34)"/>
<polygon points="391.544,267.8022 397.6061,278.3022 385.4818,278.3022" stroke="none" stroke-width="0" fill="rgb(34,139,34)"/>
<circle cx="32" cy="29" r="5" stroke="none" stroke-width="0" fill="rgb(255,0,255)"/>
<text x="61" y="33.32422" fill="rgb(0,0,0)" font-size="10pt" font-family="Times New Roman" text-anchor="start" transform="rotate(0,61,33.32422)">Serie 1</text>
<polygon points="32,41 36.33013,48.5 27.66987,48.5" stroke="none" stroke-width="0" fill="rgb(34,139,34)"/>
<text x="61" y="50.32422" fill="rgb(0,0,0)" font-size="10pt" font-family="Times New Roman" text-anchor="start" transform="rotate(0,61,50.32422)">Serie 2</text>
</svg>